<svg xmlns="http://www.w3.org/2000/svg" width="810" viewBox="0 0 810 810" height="810" version="1.0"><defs><clipPath id="a"><path d="M 213 656 L 266 656 L 266 728.785156 L 213 728.785156 Z M 213 656"/></clipPath><clipPath id="b"><path d="M 154 636 L 274 636 L 274 728.785156 L 154 728.785156 Z M 154 636"/></clipPath><clipPath id="c"><path d="M 146 356.785156 L 289 356.785156 L 289 623 L 146 623 Z M 146 356.785156"/></clipPath></defs><g clip-path="url(#a)"><path fill="#E49214" d="M 265.550781 656.046875 C 265.550781 656.046875 223.832031 656.457031 214.9375 656.457031 C 214.9375 656.457031 223.21875 661.671875 233.035156 665.355469 C 242.851562 669.039062 240.089844 681.929688 237.023438 700.339844 C 233.953125 718.753906 223.832031 723.664062 213.910156 728.675781 C 213.910156 728.675781 234.363281 728.78125 243.871094 726.324219 C 245.375 725.9375 247.566406 724.105469 249.085938 720.699219 C 250.511719 717.511719 251.269531 712.890625 252.5625 708.421875 C 258.699219 687.246094 265.550781 656.046875 265.550781 656.046875"/></g><g clip-path="url(#b)"><path fill="#F9AE25" d="M 194.292969 728.007812 C 189.546875 727.667969 184.265625 727.0625 181.160156 723.207031 C 179.542969 721.199219 178.773438 718.582031 178.058594 716.042969 C 172.585938 696.582031 167.84375 676.882812 163.84375 657.015625 C 162.507812 657.015625 161.175781 657.019531 159.839844 657.019531 C 157.894531 657.023438 156.191406 655.777344 155.894531 653.859375 C 155.214844 649.496094 154.121094 642.359375 154.792969 641.386719 C 157.023438 638.140625 171.417969 638.59375 175.246094 638.414062 C 210.988281 636.726562 236.597656 636.160156 270.925781 638.238281 C 272.746094 638.347656 273.976562 640.191406 273.929688 642.011719 L 273.671875 652.386719 C 273.617188 654.492188 271.851562 656 269.75 656.035156 C 268.339844 656.0625 266.941406 656.085938 265.539062 656.105469 C 265.546875 656.070312 265.550781 656.046875 265.550781 656.046875 C 265.550781 656.046875 223.832031 656.457031 214.9375 656.457031 C 214.9375 656.457031 223.21875 661.671875 233.035156 665.355469 C 242.851562 669.039062 240.089844 681.929688 237.023438 700.339844 C 233.953125 718.753906 223.832031 723.664062 213.910156 728.675781 L 194.292969 728.007812"/></g><path fill="#6A9F2E" d="M 145.644531 564.269531 C 152.613281 561.367188 159.1875 561.515625 166.074219 562.433594 C 158.957031 556.921875 147.351562 553.417969 138.53125 553.585938 C 134.054688 553.667969 129.363281 554.574219 125.964844 557.492188 C 123.75 559.390625 122.269531 561.992188 120.917969 564.578125 C 109.808594 585.84375 104.605469 610.164062 106.046875 634.117188 C 111.652344 624.019531 116.710938 613.613281 121.1875 602.964844 C 126.371094 590.65625 132.328125 569.824219 145.644531 564.269531 Z M 186.804688 548.058594 C 190.800781 561.242188 193.9375 574.691406 196.265625 588.261719 C 197.960938 598.144531 199.175781 608.113281 200.265625 618.078125 C 200.28125 618.203125 200.292969 618.359375 200.308594 618.53125 C 203.570312 617.792969 206.902344 617.316406 210.214844 617.046875 C 208.417969 603.183594 205.328125 589.378906 202.5 576.148438 C 200.527344 566.925781 198.339844 557.980469 195.859375 549.308594 C 201.0625 546.332031 205.882812 536.898438 207.210938 533.363281 C 210.914062 523.5 210.722656 512.023438 205.90625 502.558594 C 196.90625 507.117188 190.949219 515.917969 188.109375 525.738281 C 184.878906 517.160156 181.246094 508.878906 177.144531 500.886719 C 181.28125 496.558594 183.53125 486.5625 183.933594 482.890625 C 185.078125 472.414062 182.054688 461.339844 175.050781 453.359375 C 167.949219 459.578125 164.34375 468.730469 163.640625 478.246094 C 159.9375 472.867188 155.941406 467.636719 151.617188 462.554688 C 155.808594 458.234375 155.597656 445.949219 155.042969 441.859375 C 153.636719 431.414062 148.035156 421.402344 139.3125 415.34375 C 133.375 423.871094 132.402344 434.824219 134.808594 445.070312 C 130.960938 441.519531 126.910156 438.050781 122.640625 434.660156 C 121.839844 434.023438 121.003906 433.375 120.128906 432.738281 C 120.070312 424.84375 114.234375 417.441406 107.742188 413.386719 C 100.039062 408.570312 90.828125 406.945312 81.875 405.425781 C 81.09375 413.886719 84.375 422.628906 90.527344 428.480469 C 97.433594 435.042969 106.433594 436.636719 115.429688 436.160156 C 121.285156 440.554688 126.789062 445.363281 131.949219 450.519531 C 129.363281 450.03125 127.050781 449.789062 125.65625 449.746094 C 115.128906 449.394531 104.328125 453.25 96.902344 460.84375 C 107.21875 470.976562 123.78125 472.40625 137.53125 467.929688 C 139.992188 467.132812 142.511719 466.0625 144.265625 464.214844 C 149.765625 471.015625 154.792969 478.21875 159.382812 485.707031 C 157.011719 484.621094 154.84375 483.839844 153.511719 483.457031 C 143.378906 480.582031 131.960938 481.71875 122.929688 487.304688 C 130.507812 499.625 146.234375 505 160.65625 503.972656 C 163.359375 503.777344 166.191406 503.320312 168.386719 501.796875 C 172.527344 509.921875 176.214844 518.261719 179.46875 526.679688 C 179.625 527.089844 179.777344 527.496094 179.933594 527.90625 C 179.019531 527.261719 178.210938 526.742188 177.59375 526.382812 C 168.488281 521.085938 157.148438 519.359375 147.011719 522.53125 C 151.304688 536.34375 165.214844 545.449219 179.441406 548.023438 C 181.867188 548.464844 184.46875 548.726562 186.804688 548.058594 Z M 261.308594 595.632812 C 274.351562 603.414062 280.105469 622.0625 285.195312 636.382812 C 288.039062 621.210938 284.195312 604.910156 274.867188 592.613281 C 273.15625 590.351562 271.113281 588.121094 268.382812 587.34375 C 266.648438 586.847656 264.769531 586.894531 263.003906 587.277344 C 253.125 589.414062 247.957031 592.515625 247.957031 592.515625 C 247.957031 592.515625 258.519531 593.972656 261.308594 595.632812 Z M 282.402344 487.351562 C 278.167969 492.558594 274.261719 498.046875 270.671875 503.746094 C 272.691406 502.859375 274.535156 502.226562 275.660156 501.929688 C 283.972656 499.742188 293.269531 500.847656 300.554688 505.542969 C 294.183594 515.476562 281.261719 519.621094 269.511719 518.558594 C 267.300781 518.355469 264.988281 517.9375 263.21875 516.648438 C 259.90625 522.929688 256.933594 529.371094 254.269531 535.875 C 254.136719 536.203125 254.015625 536.535156 253.882812 536.863281 C 254.632812 536.355469 255.296875 535.945312 255.808594 535.664062 C 263.316406 531.480469 272.601562 530.25 280.816406 532.996094 C 277.101562 544.195312 265.613281 551.414062 253.964844 553.292969 C 251.976562 553.613281 249.855469 553.773438 247.960938 553.191406 C 245.578125 560.542969 243.523438 568 241.792969 575.527344 C 242.566406 574.996094 243.253906 574.5625 243.765625 574.28125 C 250.402344 570.589844 258.597656 569.496094 265.859375 571.921875 C 262.578125 581.820312 252.425781 588.195312 242.136719 589.859375 C 241.058594 590.03125 239.9375 590.152344 238.84375 590.105469 C 237.683594 596.753906 236.746094 603.441406 235.886719 610.128906 C 235.742188 611.242188 235.570312 614.742188 235.335938 619.113281 C 232.546875 618.3125 229.65625 617.753906 226.757812 617.382812 C 227.613281 608.546875 229.308594 599.691406 231.222656 591.007812 C 227.152344 589.519531 223.300781 581.691406 222.320312 578.910156 C 219.785156 571.746094 220.078125 563.476562 223.679688 556.71875 C 229.566406 559.84375 233.570312 565.507812 235.664062 571.910156 C 237.15625 565.8125 238.777344 559.867188 240.550781 554.082031 C 236.351562 551.570312 232.5625 543.804688 231.53125 540.898438 C 228.664062 532.792969 228.996094 523.433594 233.070312 515.785156 C 240.351562 519.644531 245.078125 526.929688 247.238281 534.988281 C 250.011719 528.039062 253.101562 521.335938 256.578125 514.875 C 253.261719 511.285156 251.578125 503.082031 251.304688 500.078125 C 250.535156 491.511719 253.171875 482.523438 259.011719 476.121094 C 264.71875 481.3125 267.519531 488.84375 267.9375 496.628906 C 271.257812 491.996094 274.855469 487.507812 278.75 483.160156 C 278.683594 478.253906 285.394531 471.023438 287.933594 468.859375 C 294.480469 463.28125 303.335938 460.246094 311.929688 461.320312 C 310.492188 473.039062 300.644531 482.371094 289.59375 486.507812 C 287.292969 487.367188 284.753906 488.046875 282.402344 487.351562"/><g clip-path="url(#c)"><path fill="#5C8A2D" d="M 176.710938 585.761719 C 179.796875 589.757812 186.960938 608.058594 194.011719 620.308594 C 196.066406 619.601562 198.171875 619.007812 200.304688 618.53125 C 200.292969 618.359375 200.28125 618.203125 200.265625 618.078125 C 199.355469 609.746094 198.351562 601.410156 197.058594 593.121094 C 193.882812 587.21875 190.964844 582.554688 189.652344 580.988281 C 183.152344 573.25 174.617188 567.539062 165.890625 562.410156 C 159.292969 561.542969 152.972656 561.40625 146.316406 564.007812 C 158.3125 567.472656 168.980469 575.753906 176.710938 585.761719 Z M 260.601562 421.871094 C 272.347656 420.746094 284.277344 414.285156 288.703125 403.34375 C 280.679688 400.078125 271.339844 400.707031 263.574219 404.394531 C 263.050781 404.640625 262.371094 405.003906 261.597656 405.457031 C 263.855469 400.902344 266.070312 396.332031 268.070312 391.667969 C 270.535156 391.5 272.683594 389.945312 274.539062 388.308594 C 283.394531 380.503906 289.269531 368.269531 286.4375 356.8125 C 278.023438 358.875 270.828125 364.863281 266.703125 372.414062 C 265.167969 375.214844 261.714844 383.734375 263.019531 388.453125 C 260.71875 392.765625 258.457031 397.117188 256.246094 401.496094 C 253.9375 393.089844 248.859375 385.503906 241.128906 381.734375 C 237.316406 389.519531 237.304688 398.882812 240.445312 406.890625 C 241.40625 409.332031 244.496094 415.246094 248.042969 418.398438 C 245.273438 424.355469 242.605469 430.359375 240.054688 436.414062 C 237.695312 428.1875 232.660156 420.800781 225.0625 417.097656 C 221.25 424.882812 221.238281 434.246094 224.382812 442.25 C 225.421875 444.902344 228.960938 451.628906 232.878906 454.5 C 230.953125 459.640625 229.132812 464.820312 227.414062 470.027344 C 224.953125 462.136719 220.003906 455.117188 212.667969 451.539062 C 208.855469 459.324219 208.84375 468.691406 211.988281 476.695312 C 213.113281 479.574219 217.191406 487.25 221.492188 489.585938 C 219.535156 496.714844 217.785156 503.886719 216.273438 511.105469 C 211.570312 503.613281 204.398438 497.726562 195.78125 496.351562 C 195.054688 500.816406 195.445312 505.386719 196.722656 509.707031 C 199.3125 506.800781 202.371094 504.347656 205.90625 502.558594 C 209.738281 510.085938 210.628906 518.882812 208.980469 527.128906 C 210.261719 528.117188 211.617188 529.015625 212.945312 529.664062 C 212.675781 531.457031 212.421875 533.25 212.183594 535.046875 C 210.054688 551.160156 209.339844 566.667969 209.113281 582.921875 C 209.039062 588.300781 209.996094 604.503906 211.417969 616.957031 C 213.816406 616.800781 216.203125 616.753906 218.542969 616.800781 C 218.011719 607.371094 216.699219 596.796875 216.699219 593.492188 C 216.703125 573.257812 218.300781 552.164062 221.382812 531.328125 C 223.214844 531.570312 225.15625 531.191406 226.96875 530.695312 C 227.871094 530.449219 228.761719 530.167969 229.652344 529.855469 C 229.664062 524.976562 230.769531 520.105469 233.070312 515.785156 C 236.484375 517.59375 239.328125 520.160156 241.617188 523.203125 C 246.636719 519.089844 250.429688 513.703125 251.800781 507.382812 C 243.238281 505.503906 234.035156 507.742188 226.925781 512.757812 C 226.222656 513.253906 225.214844 514.058594 224.105469 515.058594 C 225.574219 507.191406 227.253906 499.414062 229.140625 491.773438 C 231.160156 492.445312 233.4375 492.195312 235.5625 491.777344 C 242.855469 490.34375 250.015625 486.792969 255.148438 481.53125 C 256.222656 479.59375 257.511719 477.769531 259.011719 476.121094 C 259.074219 476.175781 259.132812 476.238281 259.191406 476.296875 C 260.253906 474.515625 261.109375 472.605469 261.707031 470.578125 C 253.398438 468.113281 244.164062 469.660156 236.800781 474.097656 C 235.941406 474.613281 234.632812 475.519531 233.207031 476.671875 C 233.367188 476.117188 233.519531 475.554688 233.683594 475.003906 C 235.714844 468.171875 237.929688 461.394531 240.316406 454.679688 C 242.046875 454.992188 243.90625 454.765625 245.660156 454.425781 C 257.238281 452.144531 268.476562 444.546875 271.804688 433.222656 C 263.636719 430.800781 254.574219 432.261719 247.273438 436.53125 C 249.40625 431.34375 251.648438 426.207031 254 421.121094 C 255.988281 422.09375 258.367188 422.085938 260.601562 421.871094 Z M 235.335938 619.113281 C 235.570312 614.742188 235.742188 611.242188 235.886719 610.128906 C 235.921875 609.871094 235.957031 609.609375 235.988281 609.347656 C 238.1875 604.648438 240.738281 600.109375 244.171875 595.445312 C 245.066406 594.222656 246.5625 593.199219 248.257812 592.347656 C 248.0625 592.453125 247.957031 592.515625 247.957031 592.515625 C 247.957031 592.515625 258.519531 593.972656 261.308594 595.632812 C 262.644531 596.433594 263.90625 597.351562 265.097656 598.363281 C 255.484375 602.738281 248.058594 612.625 243.917969 622.628906 C 241.257812 621.132812 238.359375 619.980469 235.335938 619.113281"/></g><path fill="#6F4323" d="M 175.246094 638.414062 C 205.816406 636.96875 228.980469 636.351562 256.523438 637.5 C 255.589844 634.957031 254.382812 632.535156 252.769531 630.328125 C 245.769531 620.75 232.953125 617.480469 221.105469 616.886719 C 203.332031 615.996094 182.085938 620.457031 172.304688 637.042969 C 172.011719 637.539062 171.75 638.019531 171.507812 638.488281 C 173.097656 638.464844 174.417969 638.453125 175.246094 638.414062"/></svg>